<svg preserveAspectRatio="none" width="100%" height="100%" overflow="visible" style="display: block;" viewBox="0 0 24.0939 37" fill="none" xmlns="http://www.w3.org/2000/svg">
<g id="Group 19">
<path id="Ellipse 16" d="M20.9249 10.9095C21.0132 8.82228 20.4749 6.75644 19.3793 4.97773C18.2837 3.19902 16.681 1.78883 14.7773 0.928609C12.8735 0.0683857 10.756 -0.202515 8.69702 0.150763C6.63807 0.504041 4.73192 1.46534 3.22385 2.91096C1.71578 4.35658 0.674782 6.22039 0.234795 8.26257C-0.205192 10.3048 -0.024036 12.4319 0.754955 14.3702C1.53395 16.3086 2.87513 17.9695 4.60594 19.1393C6.33675 20.3091 8.378 20.9342 10.467 20.9342L10.4671 17.1139C9.14051 17.1138 7.84429 16.7169 6.74521 15.9741C5.64612 15.2312 4.79445 14.1765 4.29979 12.9456C3.80512 11.7148 3.69008 10.364 3.96948 9.06721C4.24888 7.7704 4.90992 6.58686 5.86756 5.66887C6.82521 4.75089 8.03563 4.14045 9.34309 3.91612C10.6505 3.69178 11.9952 3.86381 13.2041 4.41006C14.413 4.95631 15.4307 5.8518 16.1265 6.9813C16.8222 8.11079 17.164 9.42263 17.1079 10.748L20.9249 10.9095Z" fill="var(--fill-0, #4181F0)"/>
<path id="Ellipse 17" d="M15.4773 10.8738C15.5196 9.87393 15.2617 8.88424 14.7369 8.03212C14.212 7.17999 13.4442 6.50441 12.5322 6.09231C11.6202 5.6802 10.6057 5.55042 9.61932 5.71966C8.63293 5.88891 7.71976 6.34944 6.99729 7.04199C6.27482 7.73454 5.7761 8.62744 5.56532 9.60579C5.35453 10.5841 5.44132 11.6032 5.81451 12.5318C6.1877 13.4604 6.83022 14.2561 7.6594 14.8165C8.48858 15.3769 9.46648 15.6764 10.4673 15.6764L10.4673 10.6619L15.4773 10.8738Z" fill="var(--fill-0, #4181F0)"/>
<path id="Ellipse 18" d="M13.1995 21.3706C13.9294 22.3083 14.9505 23.0092 16.1204 23.3758C17.2904 23.7423 18.5507 23.7562 19.7259 23.4154C20.901 23.0746 21.9323 22.3962 22.676 21.4747C23.4196 20.5532 23.8386 19.4346 23.8744 18.2749C23.9103 17.1151 23.5612 15.972 22.8759 15.005C22.1907 14.0379 21.2033 13.2951 20.0515 12.8801C18.8998 12.4651 17.641 12.3986 16.4508 12.6899C15.2605 12.9812 14.1981 13.6157 13.4117 14.505L15.3891 16.0613C15.8338 15.5584 16.4346 15.1996 17.1076 15.0349C17.7806 14.8702 18.4924 14.9078 19.1437 15.1424C19.7949 15.3771 20.3533 15.7971 20.7408 16.3439C21.1283 16.8908 21.3256 17.5371 21.3054 18.1929C21.2851 18.8487 21.0482 19.4812 20.6277 20.0023C20.2072 20.5233 19.624 20.907 18.9595 21.0997C18.295 21.2924 17.5824 21.2845 16.9208 21.0773C16.2593 20.87 15.6819 20.4736 15.2691 19.9434L13.1995 21.3706Z" fill="var(--fill-0, #4181F0)"/>
<path id="Vector 3" d="M13.7294 11.8789V31.4013" stroke="var(--stroke-0, #4181F0)" stroke-width="3"/>
<path id="Polygon 4" d="M13.7292 37L12.0006 32.6184H15.4579L13.7292 37Z" fill="var(--fill-0, #4181F0)"/>
</g>
</svg>
