<svg width="800px" height="800px" viewBox="0 0 24 24" fill="none" xmlns="http://www.w3.org/2000/svg">
<path d="M3 21H12M4.3 15.5L8.7 19.9C8.8 20 9 20.1 9.2 20.1C9.4 20.1 9.6 20 9.7 19.9L18.9 10.7C19 10.6 19.1 10.4 19.1 10.2C19.1 10 19 9.8 18.9 9.7L14.7 5.5C14.6 5.4 14.4 5.3 14.2 5.3C14 5.3 13.8 5.4 13.7 5.5L4.5 14.7C4.4 14.8 4.3 15 4.3 15.2C4.3 15.4 4.4 15.6 4.5 15.7" stroke="#000000" stroke-width="2" stroke-linecap="round" stroke-linejoin="round"/>
<path d="M11.5 8.5L16.5 13.5" stroke="#000000" stroke-width="2" stroke-linecap="round" stroke-linejoin="round"/>
</svg>