<svg viewBox="10 10 24 24" fill="none" xmlns="http://www.w3.org/2000/svg">
<path d="M20.2809 24.9167C20.2065 24.6283 20.0561 24.3651 19.8455 24.1545C19.6349 23.9439 19.3718 23.7936 19.0834 23.7192L13.9709 22.4009C13.8836 22.3761 13.8069 22.3236 13.7522 22.2512C13.6975 22.1789 13.668 22.0907 13.668 22C13.668 21.9094 13.6975 21.8212 13.7522 21.7488C13.8069 21.6765 13.8836 21.624 13.9709 21.5992L19.0834 20.28C19.3717 20.2057 19.6348 20.0555 19.8454 19.8451C20.056 19.6346 20.2063 19.3716 20.2809 19.0834L21.5992 13.9709C21.6237 13.8833 21.6762 13.8062 21.7486 13.7512C21.8211 13.6963 21.9095 13.6665 22.0004 13.6665C22.0914 13.6665 22.1798 13.6963 22.2523 13.7512C22.3247 13.8062 22.3772 13.8833 22.4017 13.9709L23.7192 19.0834C23.7936 19.3718 23.9439 19.635 24.1545 19.8456C24.3651 20.0562 24.6283 20.2065 24.9167 20.2809L30.0292 21.5984C30.1171 21.6226 30.1946 21.6751 30.2499 21.7476C30.3052 21.8202 30.3351 21.9088 30.3351 22C30.3351 22.0912 30.3052 22.1799 30.2499 22.2525C30.1946 22.325 30.1171 22.3775 30.0292 22.4017L24.9167 23.7192C24.6283 23.7936 24.3651 23.9439 24.1545 24.1545C23.9439 24.3651 23.7936 24.6283 23.7192 24.9167L22.4009 30.0292C22.3764 30.1168 22.3239 30.1939 22.2514 30.2489C22.179 30.3038 22.0905 30.3336 21.9996 30.3336C21.9087 30.3336 21.8202 30.3038 21.7478 30.2489C21.6754 30.1939 21.6229 30.1168 21.5984 30.0292L20.2809 24.9167Z" stroke="black" stroke-width="1.66667" stroke-linecap="round" stroke-linejoin="round"/>
<path d="M28.6665 14.5V17.8333" stroke="black" stroke-width="1.66667" stroke-linecap="round" stroke-linejoin="round"/>
<path d="M30.3333 16.1667H27" stroke="black" stroke-width="1.66667" stroke-linecap="round" stroke-linejoin="round"/>
<path d="M15.3335 26.1667V27.8334" stroke="black" stroke-width="1.66667" stroke-linecap="round" stroke-linejoin="round"/>
<path d="M16.1667 27H14.5" stroke="black" stroke-width="1.66667" stroke-linecap="round" stroke-linejoin="round"/>
</svg>
