<svg width="495" height="760" viewBox="0 0 495 760" fill="none" xmlns="http://www.w3.org/2000/svg">
<path d="M429.808 224.086C431.621 181.214 420.565 138.781 398.061 102.245C375.557 65.7094 342.636 36.7434 303.532 19.074C264.429 1.40454 220.933 -4.15991 178.641 3.09661C136.349 10.3531 97.1961 30.0986 66.2196 59.7924C35.243 89.4863 13.8603 127.77 4.82273 169.717C-4.21484 211.665 -0.493791 255.357 15.5071 295.172C31.508 334.987 59.0567 369.104 94.6084 393.132C130.16 417.16 172.089 430 214.999 430L214.999 351.527C187.751 351.527 161.126 343.374 138.55 328.116C115.974 312.858 98.4805 291.193 88.3198 265.91C78.159 240.627 75.7961 212.882 81.5351 186.245C87.2741 159.608 100.852 135.297 120.523 116.441C140.193 97.5856 165.056 85.047 191.912 80.439C218.768 75.831 246.388 79.3645 271.219 90.5848C296.05 101.805 316.956 120.199 331.246 143.399C345.536 166.6 352.557 193.546 351.405 220.77L429.808 224.086Z" fill="#4181F0"/>
<path d="M317.908 223.353C318.777 202.814 313.48 182.486 302.699 164.982C291.918 147.479 276.146 133.603 257.413 125.138C238.68 116.673 217.842 114.007 197.582 117.483C177.321 120.96 158.564 130.419 143.724 144.645C128.884 158.87 118.64 177.211 114.31 197.306C109.981 217.402 111.763 238.334 119.429 257.408C127.095 276.482 140.292 292.826 157.324 304.337C174.356 315.849 194.442 322 214.999 322L215 219L317.908 223.353Z" fill="#4181F0"/>
<path d="M271.111 438.96C286.104 458.22 307.079 472.619 331.109 480.148C355.14 487.677 381.029 487.961 405.167 480.962C429.304 473.962 450.488 460.026 465.763 441.099C481.038 422.171 489.644 399.194 490.38 375.372C491.117 351.55 483.947 328.071 469.871 308.207C455.795 288.343 435.514 273.085 411.856 264.561C388.198 256.037 362.342 254.671 337.894 260.655C313.446 266.638 291.624 279.671 275.47 297.938L316.088 329.904C325.222 319.575 337.562 312.205 351.386 308.822C365.21 305.439 379.831 306.211 393.208 311.031C406.586 315.851 418.053 324.478 426.013 335.71C433.972 346.942 438.027 360.219 437.61 373.689C437.194 387.16 432.328 400.152 423.69 410.855C415.053 421.557 403.074 429.437 389.426 433.395C375.777 437.354 361.138 437.193 347.55 432.935C333.961 428.678 322.101 420.536 313.623 409.645L271.111 438.96Z" fill="#4181F0"/>
<path d="M282 244V645" stroke="#4181F0" stroke-width="70"/>
<path d="M282 760L246.493 670H317.507L282 760Z" fill="#4181F0"/>
</svg>
